<svg width="154" height="78" viewBox="0 0 154 78" fill="none" xmlns="http://www.w3.org/2000/svg">
<path d="M130.9 16.125V31.375H138.6V46.625H130.9V61.875H15.4V16.125H130.9ZM134.75 0.875H11.55C5.17103 0.875 0 5.99566 0 12.3125V65.6875C0 72.0043 5.17103 77.125 11.55 77.125H134.75C141.129 77.125 146.3 72.0043 146.3 65.6875V61.875H148.225C151.414 61.875 154 59.3147 154 56.1562V21.8438C154 18.6853 151.414 16.125 148.225 16.125H146.3V12.3125C146.3 5.99566 141.129 0.875 134.75 0.875ZM123.2 23.75H23.1V54.25H123.2V23.75Z" fill="#4F4F4F"/>
</svg>
