<svg width="124" height="122" viewBox="0 0 124 122" fill="none" xmlns="http://www.w3.org/2000/svg">
<path d="M111.073 60.9806L122.21 50.2568C125.529 47.1646 123.981 41.6693 119.627 40.6447L104.454 36.8346L108.731 22.0576C109.94 17.8071 105.866 13.7981 101.548 14.9876L86.5334 19.1973L82.6622 4.26396C81.6378 0.0466202 75.99 -1.49577 72.896 1.72198L62 12.7644L51.1042 1.72221C48.0454 -1.45908 42.3741 -0.00151301 41.338 4.2642L37.4669 19.1975L22.4525 14.9878C18.1326 13.7978 14.0604 17.8083 15.2689 22.0578L19.5462 36.8349L4.37317 40.645C0.0167027 41.6698 -1.52821 47.166 1.79024 50.2568L12.9272 60.9806L1.79024 71.7042C-1.52966 74.7964 0.0183985 80.2916 4.37293 81.3162L19.546 85.1264L15.2687 99.9034C14.0599 104.154 18.1335 108.163 22.4522 106.973L37.4664 102.764L41.3375 117.697C42.4126 122.123 48.0452 123.42 51.1037 120.239L62 109.278L72.8958 120.239C75.9231 123.453 81.6114 122.023 82.662 117.697L86.5331 102.764L101.547 106.973C105.867 108.163 109.939 104.153 108.731 99.9034L104.454 85.1264L119.627 81.3162C123.983 80.2912 125.528 74.7952 122.209 71.7042L111.073 60.9806Z" fill="#4F4F4F"/>
</svg>
