<svg width="154" height="122" viewBox="0 0 154 122" fill="none" xmlns="http://www.w3.org/2000/svg">
<path d="M150.15 83.875H146.3V58.1168C146.3 55.0906 145.073 52.1836 142.907 50.0391L118.869 26.2348C116.703 24.0902 113.768 22.875 110.712 22.875H100.1V11.4375C100.1 5.12305 94.9266 0 88.55 0H26.95C20.5734 0 15.4 5.12305 15.4 11.4375V22.875H1.925C0.86625 22.875 0 23.7328 0 24.7812V28.5938C0 29.6422 0.86625 30.5 1.925 30.5H67.375C68.4337 30.5 69.3 31.3578 69.3 32.4062V36.2188C69.3 37.2672 68.4337 38.125 67.375 38.125H9.625C8.56625 38.125 7.7 38.9828 7.7 40.0312V43.8438C7.7 44.8922 8.56625 45.75 9.625 45.75H59.675C60.7337 45.75 61.6 46.6078 61.6 47.6562V51.4688C61.6 52.5172 60.7337 53.375 59.675 53.375H1.925C0.86625 53.375 0 54.2328 0 55.2812V59.0938C0 60.1422 0.86625 61 1.925 61H51.975C53.0337 61 53.9 61.8578 53.9 62.9062V66.7188C53.9 67.7672 53.0337 68.625 51.975 68.625H15.4V99.125C15.4 111.754 25.7469 122 38.5 122C51.2531 122 61.6 111.754 61.6 99.125H92.4C92.4 111.754 102.747 122 115.5 122C128.253 122 138.6 111.754 138.6 99.125H150.15C152.268 99.125 154 97.4094 154 95.3125V87.6875C154 85.5906 152.268 83.875 150.15 83.875ZM38.5 110.562C32.1234 110.562 26.95 105.439 26.95 99.125C26.95 92.8105 32.1234 87.6875 38.5 87.6875C44.8766 87.6875 50.05 92.8105 50.05 99.125C50.05 105.439 44.8766 110.562 38.5 110.562ZM115.5 110.562C109.123 110.562 103.95 105.439 103.95 99.125C103.95 92.8105 109.123 87.6875 115.5 87.6875C121.877 87.6875 127.05 92.8105 127.05 99.125C127.05 105.439 121.877 110.562 115.5 110.562ZM134.75 61H100.1V34.3125H110.712L134.75 58.1168V61Z" fill="#4F4F4F"/>
</svg>
